<?xml version="1.0" standalone="no"?>
<!DOCTYPE svg PUBLIC "-//W3C//DTD SVG 20010904//EN"
 "http://www.w3.org/TR/2001/REC-SVG-20010904/DTD/svg10.dtd">
<svg version="1.0" xmlns="http://www.w3.org/2000/svg"
 width="16.000000pt" height="16.000000pt" viewBox="0 0 16.000000 16.000000"
 preserveAspectRatio="xMidYMid meet">
<metadata>
Created by potrace 1.11, written by Peter Selinger 2001-2013
</metadata>
<g transform="translate(0.000000,16.000000) scale(0.002000,-0.002000)"
fill="#000000" stroke="none">
<path d="M0 4000 l0 -4000 4000 0 4000 0 0 4000 0 4000 -4000 0 -4000 0 0
-4000z m1088 2367 c2 -12 -3 -17 -17 -17 -12 0 -21 6 -21 13 0 31 32 34 38 4z
m67 -87 c3 -5 25 -10 48 -10 57 0 87 -22 87 -64 0 -18 -3 -36 -7 -39 -12 -12
-31 13 -26 34 7 24 -11 39 -43 39 -15 0 -24 -8 -28 -25 -7 -29 -26 -25 -26 5
0 11 -11 27 -25 36 -32 21 -65 10 -65 -22 0 -15 -6 -24 -15 -24 -9 0 -15 9
-15 24 0 51 -84 36 -92 -16 -4 -28 -22 -27 -26 2 -2 13 -11 20 -27 20 -31 0
-59 -28 -45 -45 7 -9 6 -16 -3 -24 -19 -15 -27 -4 -27 35 0 42 30 64 87 64 23
0 45 5 48 10 3 6 48 10 100 10 52 0 97 -4 100 -10z m-191 -124 c-4 -10 2 -12
20 -9 16 3 26 1 26 -6 0 -7 -8 -11 -18 -9 -11 2 -26 -3 -35 -11 -11 -9 -17
-10 -17 -2 0 6 5 11 11 11 8 0 8 4 -1 15 -6 8 -9 19 -5 25 9 14 25 2 19 -14z
m126 -7 c0 -10 -4 -19 -10 -19 -5 0 -10 12 -10 26 0 14 4 23 10 19 6 -3 10
-15 10 -26z m87 -2 c-1 -31 -2 -33 -24 -23 -26 12 -30 26 -8 26 8 0 15 7 15
15 0 8 4 15 9 15 5 0 9 -15 8 -33z m-292 -7 c-3 -5 -11 -10 -16 -10 -6 0 -7 5
-4 10 3 6 11 10 16 10 6 0 7 -4 4 -10z m175 0 c0 -5 -7 -10 -16 -10 -8 0 -12
5 -9 10 3 6 10 10 16 10 5 0 9 -4 9 -10z m200 0 c0 -5 -4 -10 -10 -10 -5 0
-10 5 -10 10 0 6 5 10 10 10 6 0 10 -4 10 -10z m-345 -30 c3 -5 -3 -10 -14
-10 -12 0 -21 5 -21 10 0 6 6 10 14 10 8 0 18 -4 21 -10z m325 0 c0 -5 -7 -10
-15 -10 -8 0 -15 5 -15 10 0 6 7 10 15 10 8 0 15 -4 15 -10z m-105 -15 c67
-18 73 -21 59 -35 -6 -6 -27 -4 -58 5 -63 19 -120 19 -182 0 -27 -8 -50 -15
-51 -15 -2 0 -3 6 -3 14 0 20 70 41 145 45 17 0 57 -6 90 -14z m-333 -347
l-262 -263 263 -264 c251 -253 282 -293 135 -174 -90 73 -313 305 -365 379
l-42 60 52 70 c93 126 437 454 476 454 3 0 -112 -118 -257 -262z m463 105 c99
-89 288 -298 315 -349 12 -22 9 -29 -43 -97 -78 -101 -199 -229 -298 -314
-186 -160 -161 -123 84 123 141 143 257 264 257 269 0 5 -116 126 -257 269
-252 252 -275 293 -58 99z m-225 -28 l0 -135 -50 0 -50 0 0 87 0 87 47 48 c26
26 49 48 50 48 2 0 3 -61 3 -135z m80 -116 c0 -202 -1 -209 -20 -209 -19 0
-20 7 -20 233 l1 232 19 -24 c19 -21 20 -39 20 -232z m100 -61 c0 -151 -1
-158 -20 -158 -18 0 -20 -7 -20 -65 l0 -65 -50 0 -50 0 0 60 0 60 45 0 45 0 0
187 0 186 25 -23 c25 -23 25 -26 25 -182z m3836 168 c731 -110 1364 -515 1767
-1131 544 -833 544 -1927 0 -2760 -283 -433 -697 -777 -1168 -969 -767 -312
-1650 -229 -2340 221 -149 97 -256 184 -389 313 -365 355 -609 800 -714 1300
-38 179 -47 279 -47 520 1 266 14 383 72 615 176 705 655 1307 1306 1639 274
140 578 230 897 265 119 13 494 5 616 -13z m-4166 -71 l0 -55 -57 0 -57 0 54
55 c30 30 56 55 57 55 2 0 3 -25 3 -55z m440 -127 c0 -98 0 -98 -25 -98 l-25
0 0 122 0 121 25 -23 c23 -22 25 -30 25 -122z m100 -64 c0 -47 -2 -54 -20 -54
-18 0 -20 7 -20 78 l1 77 19 -24 c15 -17 20 -38 20 -77z m-540 6 l0 -60 -152
0 -152 0 59 60 59 60 93 0 93 0 0 -60z m150 0 l0 -60 -50 0 -50 0 0 60 0 60
50 0 50 0 0 -60z m470 -45 c10 -12 10 -15 -4 -15 -9 0 -16 7 -16 15 0 8 2 15
4 15 2 0 9 -7 16 -15z m-1000 -26 c0 -14 -5 -19 -17 -17 -26 5 -29 38 -4 38
15 0 21 -6 21 -21z m1140 0 c0 -14 -5 -19 -17 -17 -26 5 -29 38 -4 38 15 0 21
-6 21 -21z m-1030 -25 c0 -14 -3 -14 -15 -4 -8 7 -15 14 -15 16 0 2 7 4 15 4
8 0 15 -7 15 -16z m110 -56 l-1 -73 -19 24 c-14 16 -20 38 -20 72 0 42 3 49
20 49 18 0 20 -7 20 -72z m100 -50 l0 -121 -25 23 c-23 22 -25 30 -25 122 0
98 0 98 25 98 l25 0 0 -122z m100 -55 c0 -175 0 -176 -20 -158 -18 17 -20 31
-20 177 0 151 1 158 20 158 19 0 20 -7 20 -177z m130 -50 c0 -225 0 -226 -20
-208 -19 17 -20 31 -20 227 0 201 1 208 20 208 19 0 20 -7 20 -227z m415 167
l-59 -60 -88 0 -88 0 0 60 0 60 147 0 147 0 -59 -60z m-295 -218 l0 -88 -50
-49 -50 -49 0 137 0 137 50 0 50 0 0 -88z m160 85 c0 -1 -22 -25 -50 -52 l-50
-49 0 52 0 52 50 0 c28 0 50 -1 50 -3z m-252 -390 c2 -12 -3 -17 -17 -17 -12
0 -21 6 -21 13 0 31 32 34 38 4z"/>
<path d="M3466 4578 c-4 -178 -6 -861 -4 -1518 l3 -1195 575 -3 c633 -3 818 5
1008 43 138 28 296 86 382 140 30 18 58 31 62 27 3 -4 24 -48 46 -98 22 -50
65 -141 96 -202 31 -61 56 -113 56 -116 0 -2 -20 -9 -44 -15 -56 -14 -64 -26
-31 -47 38 -25 183 -24 221 1 26 17 27 18 9 31 -10 8 -27 14 -37 14 -31 0 -20
13 65 77 229 171 494 431 592 577 84 126 99 176 99 321 0 104 -4 130 -26 193
-67 187 -193 317 -376 390 -62 24 -78 26 -212 26 -110 0 -155 -4 -186 -16
l-42 -16 -32 40 c-79 97 -251 194 -430 239 l-44 11 54 19 c161 57 318 213 381
378 69 182 60 420 -21 586 -111 226 -337 357 -710 411 -96 14 -227 18 -781 21
l-667 5 -6 -324z m1288 -343 c73 -27 122 -80 136 -151 33 -156 -48 -298 -195
-343 -57 -18 -93 -21 -241 -21 l-174 0 0 271 0 271 213 -4 c171 -4 221 -8 261
-23z m6 -1116 c73 -11 163 -49 198 -82 52 -49 67 -94 67 -207 0 -98 -2 -109
-30 -158 -33 -61 -88 -103 -173 -135 -51 -19 -84 -22 -299 -25 l-243 -4 0 311
0 311 208 0 c114 0 236 -5 272 -11z m1343 -152 c74 -34 156 -112 193 -184 27
-54 29 -66 29 -168 0 -101 -2 -115 -28 -168 -37 -74 -110 -147 -184 -184 -53
-25 -68 -28 -163 -28 -88 0 -113 4 -155 23 -87 40 -87 40 -43 129 56 115 80
216 81 353 1 63 -2 143 -6 177 l-8 62 33 10 c60 19 187 8 251 -22z"/>
</g>
</svg>
